<svg width="423" height="78" viewBox="0 0 423 78" fill="none" xmlns="http://www.w3.org/2000/svg">
<path fill-rule="evenodd" clip-rule="evenodd" d="M315.1 31.5C315.1 34 317.1 36 319.6 36C322.1 36 324.1 34 324.1 31.5C324.1 29 322.1 27 319.6 27C317.1 27 315.1 29 315.1 31.5ZM315.8 31.6C315.8 29.5 317.5 27.8 319.6 27.8C321.6 27.8 323.4 29.5 323.4 31.6C323.4 33.7 321.7 35.4 319.6 35.4C317.5 35.4 315.8 33.7 315.8 31.6Z" fill="#ffffff"/>
<path d="M2.19998 20.7H5.19998V34.2H23.6V20.7H26.6V51.7H23.6V36.7H5.09998V51.7H2.09998L2.19998 20.7Z" fill="#ffffff"/>
<path fill-rule="evenodd" clip-rule="evenodd" d="M40.1 50.1C34.8 50.1 32.7 45.3 32.7 41.3L50 41.2C50.2 34.9 47.3 28.6 40.1 28.6C33 28.6 30 34.6 30 40.5C30 46.9 33 52.4 40 52.4C45.7 52.4 48.6 49.5 49.8 44.4H47.1C46.3 47.8 44.1 50.1 40.1 50.1ZM40.2 31C44.6 31 47.2 34.9 47.3 39H32.8C33.3 34.9 35.7 31 40.2 31Z" fill="#ffffff"/>
<path fill-rule="evenodd" clip-rule="evenodd" d="M61.4 28.7C56.3 28.7 52.6 30.9 52.3 36.2V36.3H55C55.1 32.7 57.6 31.1 61 31.1C64.3 31.1 66.9 32 66.9 35.7C66.9 38.1 65.7 38.4 63.4 38.7C62.9781 38.7501 62.5553 38.7976 62.1337 38.8449C56.6589 39.4598 51.4 40.0504 51.4 45.9C51.4 50.5 54.8 52.5 58.9 52.5C63.2 52.5 65.2 50.8 67.1 47.9H67.2C67.2 50.2 67.6 51.8 70.4 51.8C71.0627 51.8 71.4509 51.7314 71.9058 51.651C72 51.6343 72.097 51.6172 72.2 51.6V49.3C72 49.4 71.6 49.5 71.3 49.5C70.2 49.5 69.7 48.8 69.7 47.8V35.9C69.7 29.9 65.4 28.7 61.4 28.7ZM64.5 40.5C65.2 40.4 66.5 40.2 66.9 39.5V43.1C67 47.5 63.3 50.1 59.1 50.1C56.5 50.1 54.1 48.4 54.1 45.7C54.1 41.9893 58.2252 41.408 62.2768 40.8371C63.0293 40.731 63.7794 40.6253 64.5 40.5Z" fill="#ffffff"/>
<path d="M74.1 20.7H76.8V51.7H74.1V20.7Z" fill="#ffffff"/>
<path d="M85.3 29.3H89.9V31.6H85.3V46.7C85.3 48.5 85.6 49.5 87.5 49.7C88.3 49.7 89.1 49.7 89.8 49.6V51.9C89 51.9 88.2 52 87.4 52C83.8 52 82.5 50.8 82.5 47V31.6H78.6V29.3H82.5V22.6H85.2V29.3H85.3Z" fill="#ffffff"/>
<path d="M92.7 20.7H95.4V33.2H95.5C96.5 30.5 99.5 28.7 102.7 28.7C109 28.7 110.9 32 110.9 37.3V51.7H108.2V37.7C108.2 33.8 106.9 30.9 102.5 30.9C98.2 30.9 95.6 34.2 95.5 38.6V51.7H92.8L92.7 20.7Z" fill="#ffffff"/>
<path d="M130.8 36.4C130.1 33.1 128 31 124.5 31C119.2 31 116.6 35.8 116.6 40.6C116.6 45.4 119.2 50.2 124.5 50.2C127.9 50.2 130.7 47.6 131 43.8H133.7C133 49.2 129.4 52.5 124.4 52.5C117.5 52.5 113.8 47.1 113.8 40.6C113.8 34.2 117.5 28.7 124.4 28.7C129.2 28.7 132.9 31.3 133.5 36.4H130.8Z" fill="#ffffff"/>
<path fill-rule="evenodd" clip-rule="evenodd" d="M145.3 28.7C140.2 28.7 136.5 30.9 136.2 36.2V36.3H138.9C139 32.7 141.5 31.1 144.9 31.1C148.2 31.1 150.8 32 150.8 35.7C150.8 38.1 149.6 38.4 147.3 38.7C146.878 38.7501 146.455 38.7976 146.034 38.8449C140.559 39.4598 135.3 40.0504 135.3 45.9C135.3 50.5 138.7 52.5 142.8 52.5C147.1 52.5 149.1 50.8 151 47.9H151.1C151.1 50.2 151.5 51.8 154.3 51.8C154.963 51.8 155.351 51.7314 155.806 51.651C155.9 51.6343 155.997 51.6172 156.1 51.6V49.3C155.9 49.4 155.5 49.5 155.2 49.5C154.1 49.5 153.6 48.8 153.6 47.8V35.9C153.6 29.9 149.3 28.7 145.3 28.7ZM148.4 40.5C149.1 40.4 150.4 40.2 150.8 39.5V43.1C150.9 47.5 147.2 50.1 143 50.1C140.4 50.1 138 48.4 138 45.7C138 41.9893 142.125 41.408 146.177 40.8371C146.929 40.731 147.679 40.6253 148.4 40.5Z" fill="#ffffff"/>
<path d="M157.9 29.3H160.4V34.6H160.5C161.9 31 164.9 28.9 169 29V31.7C164 31.4 160.7 35.1 160.7 39.7V51.6H158V29.3H157.9Z" fill="#ffffff"/>
<path fill-rule="evenodd" clip-rule="evenodd" d="M178.7 50.1C173.4 50.1 171.3 45.3 171.3 41.3L188.5 41.2C188.7 34.9 185.8 28.6 178.6 28.6C171.5 28.6 168.5 34.6 168.5 40.5C168.5 46.9 171.5 52.4 178.6 52.4C184.3 52.4 187.2 49.5 188.4 44.4H185.7C184.9 47.8 182.7 50.1 178.7 50.1ZM178.7 31C183.1 31 185.7 34.9 185.8 39H171.3C171.8 34.9 174.2 31 178.7 31Z" fill="#ffffff"/>
<path d="M193.1 41.5C193 47.9 197.6 49.8 203.2 49.8C206.5 49.8 211.4 48 211.4 43.5C211.4 40 207.9 38.6 205 37.9L198.1 36.2C194.5 35.3 191.1 33.6 191.1 28.7C191.1 25.7 193.1 20 201.8 20C207.9 20 213.3 23.3 213.3 29.6H210.3C210.1 24.9 206.2 22.5 201.8 22.5C197.8 22.5 194 24.1 194 28.7C194 31.6 196.2 32.8 198.7 33.4L206.3 35.3C210.7 36.5 214.3 38.4 214.3 43.5C214.3 45.6 213.4 52.4 202.4 52.4C195.1 52.4 189.7 49.1 190 41.5H193.1Z" fill="#ffffff"/>
<path fill-rule="evenodd" clip-rule="evenodd" d="M226.9 52.4C233.8 52.4 237.5 46.9 237.5 40.5C237.5 34.1 233.7 28.7 226.9 28.6C220 28.6 216.3 34.1 216.3 40.5C216.3 47 220 52.4 226.9 52.4ZM226.9 50.1C221.6 50.1 219 45.3 219 40.5C219 35.8 221.6 31 226.9 30.9C232.2 30.9 234.8 35.7 234.8 40.5C234.8 45.3 232.2 50.1 226.9 50.1Z" fill="#ffffff"/>
<path d="M258.6 51.7H256.1V47.7H256C254.6 50.7 251.6 52.4 248.3 52.4C242.7 52.4 240.4 49.1 240.4 43.9V29.3H243.1V43.9C243.2 47.9 244.8 50.1 249.1 50.1C253.8 50.1 255.8 45.7 255.8 41.1V29.3H258.5L258.6 51.7Z" fill="#ffffff"/>
<path d="M262.7 29.3H265.2V34.6H265.3C266.7 31 269.7 28.9 273.8 29V31.7C268.8 31.4 265.5 35.1 265.5 39.7V51.6H262.8V29.3H262.7Z" fill="#ffffff"/>
<path d="M290.3 36.4C289.6 33.1 287.5 31 284 31C278.7 31 276.1 35.8 276.1 40.6C276.1 45.4 278.7 50.2 284 50.2C287.4 50.2 290.2 47.6 290.5 43.8H293.2C292.5 49.2 288.9 52.5 283.9 52.5C277 52.5 273.3 47.1 273.3 40.6C273.3 34.2 277 28.7 283.9 28.7C288.7 28.7 292.4 31.3 293 36.4H290.3Z" fill="#ffffff"/>
<path fill-rule="evenodd" clip-rule="evenodd" d="M305 50.1C299.7 50.1 297.6 45.3 297.6 41.3L314.8 41.2C315 34.9 312.1 28.6 304.9 28.6C297.8 28.6 294.8 34.6 294.8 40.5C294.8 46.9 297.8 52.4 304.9 52.4C310.6 52.4 313.5 49.5 314.7 44.4H312C311.2 47.8 309 50.1 305 50.1ZM305 31C309.4 31 312 34.9 312.1 39H297.6C298.1 34.9 300.5 31 305 31Z" fill="#ffffff"/>
<path fill-rule="evenodd" clip-rule="evenodd" d="M317.9 34.1H318.7V32H319.5L320.8 34.1H321.7L320.3 31.9C321 31.8 321.6 31.4 321.6 30.5C321.6 29.5 321 29.1 319.8 29.1H317.9V34.1ZM320.8 30.5C320.8 31.2 320.2 31.3 319.6 31.3H318.7V29.8H319.7C320.2 29.8 320.8 29.9 320.8 30.5Z" fill="#ffffff"/>
<path d="M403.1 35C403.1 30.1 399.9 25.9 395.5 24.3C394.3 23.9 393.1 23.7 391.8 23.7H382.5C385.9 21.2 388.1 17.1 387.8 12.5C387.4 6.00003 382 0.800027 375.6 0.500027C368.3 0.200027 362.3 6.00003 362.3 13.3C362.3 17.6 364.4 21.4 367.6 23.7H358.3C356.9 23.7 355.6 24 354.3 24.4C350 26 347 30.1 347 34.9V52.9V63.4H357.6L360 43.6L363.3 63.4H386.6L389.9 43.6L392.3 63.4H403V52.9L403.1 35Z" fill="#00AAE7"/>
<path d="M413.9 24.3001H406.8V24.1001C409.2 22.4001 410.8 19.7001 410.8 16.5001C410.8 11.2001 406.3 6.90006 400.9 7.30006C396.4 7.60006 392.8 11.3001 392.4 15.8001C392.3 17.3001 392.6 18.8001 393.1 20.1001C393.4 20.9001 394.4 21.6001 395.2 21.8001C401 23.1001 405.3 28.2001 405.3 34.4001V52.8001H418.6L422.1 32.2001C422.1 27.8001 418.4 24.3001 413.9 24.3001Z" fill="#82C341"/>
<path d="M355 22C355.8 21.8 356.7 21 357.1 20.3C357.7 19 358 17.5 357.8 16C357.5 11.5 353.9 7.80001 349.3 7.50001C343.9 7.10001 339.4 11.4 339.4 16.7C339.4 19.8 341 22.6 343.4 24.3H336.3C331.8 24.3 328.1 28 328.1 32.5L331.6 53.1H344.9V35.2C344.9 35.1 344.9 35 344.9 34.9V34.7C344.9 28.4 349.2 23.3 355 22Z" fill="#82C341"/>
</svg>
